<?xml version="1.0" encoding="UTF-8"?>
<svg xmlns="http://www.w3.org/2000/svg" xmlns:xlink="http://www.w3.org/1999/xlink" width="100px" height="100px" viewBox="0 0 100 100" version="1.1">
<g id="surface1">
<path style=" stroke:none;fill-rule:evenodd;fill:rgb(17.647059%,30.980392%,61.960784%);fill-opacity:1;" d="M 11.71875 6.214844 L 88.28125 6.214844 C 90.546875 6.214844 92.488281 8.160156 92.488281 10.425781 L 92.488281 89.414062 C 92.488281 91.84375 90.546875 93.785156 88.28125 93.785156 L 11.71875 93.785156 C 9.292969 93.785156 7.511719 91.84375 7.511719 89.414062 L 7.511719 10.425781 C 7.511719 8.160156 9.292969 6.214844 11.71875 6.214844 Z M 11.71875 6.214844 "/>
<path style=" stroke:none;fill-rule:evenodd;fill:rgb(84.313725%,43.529412%,17.254902%);fill-opacity:1;" d="M 7.511719 35.835938 L 11.558594 35.835938 C 48.460938 35.835938 78.40625 31.953125 78.40625 25.640625 C 78.40625 18.679688 48.460938 13.015625 11.558594 13.015625 L 7.511719 13.015625 L 7.511719 11.371094 C 10.3125 11.28125 13.722656 11.558594 16.574219 11.558594 C 56.394531 11.558594 88.605469 19.652344 88.605469 29.039062 C 88.605469 38.425781 56.394531 45.0625 16.574219 45.0625 C 13.722656 45.0625 10.316406 45.066406 7.511719 44.9375 Z M 7.511719 35.835938 "/>
<path style=" stroke:none;fill-rule:evenodd;fill:rgb(100%,100%,100%);fill-opacity:1;" d="M 41.824219 66.589844 C 41.824219 65.941406 41.664062 65.296875 41.664062 64.488281 C 41.664062 58.175781 46.84375 52.996094 52.996094 52.996094 C 59.308594 52.996094 64.324219 58.175781 64.324219 64.488281 C 64.324219 70.800781 59.308594 75.980469 52.996094 75.980469 C 48.300781 75.980469 44.253906 73.066406 42.472656 68.855469 L 39.722656 68.855469 C 36.808594 68.855469 34.054688 68.695312 31.628906 68.371094 L 31.628906 73.386719 L 42.3125 73.386719 L 42.3125 75.652344 L 29.363281 75.652344 L 29.363281 67.882812 C 26.289062 67.238281 24.34375 66.105469 24.34375 64.972656 C 24.34375 63.839844 25.800781 62.542969 29.363281 61.894531 L 29.363281 55.097656 L 14.957031 75.65625 L 12.042969 75.65625 L 27.421875 53.480469 L 42.3125 53.480469 L 42.3125 55.90625 L 31.628906 55.90625 L 31.628906 61.574219 C 33.246094 61.410156 35.191406 61.25 37.457031 61.25 C 35.1875 61.25 33.246094 61.574219 31.628906 61.898438 L 31.628906 66.105469 C 33.894531 66.429688 36.808594 66.753906 40.046875 66.753906 L 41.824219 66.753906 Z M 82.941406 53.480469 L 82.941406 75.65625 L 80.511719 75.65625 L 67.886719 57.6875 L 67.886719 75.65625 L 65.621094 75.65625 L 65.621094 53.480469 L 67.886719 53.480469 L 80.511719 71.609375 L 80.511719 53.480469 Z M 82.941406 53.480469 "/>
<path style=" stroke:none;fill-rule:evenodd;fill:rgb(17.647059%,30.980392%,61.960784%);fill-opacity:1;" d="M 29.363281 65.621094 C 27.742188 65.296875 26.773438 64.648438 26.773438 64.164062 C 26.773438 63.675781 27.742188 63.03125 29.363281 62.542969 Z M 45.0625 68.695312 C 50.890625 68.046875 55.097656 66.753906 55.097656 64.972656 C 55.097656 63.515625 53.15625 62.21875 46.84375 61.574219 C 50.566406 62.058594 53.15625 63.191406 53.15625 64.164062 C 53.15625 65.296875 49.433594 66.265625 44.253906 66.589844 C 44.09375 65.941406 44.09375 65.296875 44.09375 64.488281 C 44.09375 59.46875 48.136719 55.421875 52.996094 55.421875 C 58.011719 55.421875 62.058594 59.46875 62.058594 64.488281 C 62.058594 69.503906 58.011719 73.710938 52.996094 73.710938 C 49.59375 73.710938 46.519531 71.609375 45.0625 68.695312 Z M 45.0625 68.695312 "/>
<path style=" stroke:none;fill-rule:evenodd;fill:rgb(100%,100%,100%);fill-opacity:1;" d="M 19.164062 86.5 C 19.003906 86.660156 18.195312 87.308594 17.382812 87.308594 C 15.929688 87.308594 14.957031 86.015625 14.957031 84.074219 C 14.957031 82.453125 15.765625 80.835938 17.382812 80.835938 C 18.195312 80.835938 18.839844 81.484375 19.003906 81.804688 L 19.003906 81.644531 C 19.164062 81.484375 19.164062 81.15625 19.328125 80.996094 C 18.679688 80.671875 18.03125 80.511719 17.382812 80.511719 C 15.605469 80.511719 14.148438 81.804688 14.148438 84.070312 C 14.148438 86.335938 15.28125 87.796875 17.222656 87.796875 C 17.871094 87.796875 18.519531 87.632812 19.164062 87.148438 Z M 21.59375 80.996094 L 22.886719 80.996094 C 23.535156 81.160156 23.859375 81.644531 23.859375 82.292969 C 23.859375 83.101562 23.375 83.585938 22.726562 83.75 C 22.238281 83.910156 21.753906 83.75 21.59375 83.75 Z M 20.945312 87.632812 L 21.59375 87.632812 L 21.59375 84.234375 L 21.917969 84.234375 L 22.5625 85.207031 L 23.699219 86.664062 L 24.183594 87.632812 L 25.15625 87.632812 L 24.992188 87.308594 L 24.667969 86.824219 L 22.886719 84.070312 C 23.699219 83.910156 24.507812 83.425781 24.507812 82.128906 C 24.507812 81.15625 24.023438 80.671875 22.726562 80.671875 L 20.945312 80.671875 Z M 27.421875 81.160156 L 29.6875 81.160156 L 29.6875 80.671875 L 26.609375 80.671875 L 26.609375 87.632812 L 29.6875 87.632812 L 29.6875 86.984375 L 28.875 86.984375 C 28.390625 87.148438 27.90625 87.148438 27.421875 87.148438 L 27.421875 84.070312 L 28.714844 84.070312 C 28.875 84.070312 29.199219 84.070312 29.523438 84.234375 C 29.523438 84.070312 29.363281 83.910156 29.363281 83.910156 C 29.363281 83.75 29.523438 83.75 29.523438 83.585938 L 27.421875 83.585938 Z M 32.277344 80.996094 L 33.410156 80.996094 C 35.191406 80.996094 36 81.804688 36 83.910156 C 36 85.207031 35.675781 86.339844 34.703125 86.824219 C 34.054688 87.308594 33.085938 87.148438 32.277344 87.148438 Z M 31.464844 87.632812 L 33.246094 87.632812 C 34.054688 87.632812 35.027344 87.472656 35.835938 86.824219 C 36.484375 86.175781 36.808594 85.207031 36.808594 83.746094 C 36.808594 82.777344 36.644531 81.804688 36 81.15625 C 35.191406 80.511719 34.378906 80.671875 33.410156 80.671875 L 31.464844 80.671875 Z M 38.589844 87.632812 L 39.398438 87.632812 L 39.398438 80.671875 L 38.589844 80.671875 Z M 43.605469 81.160156 L 45.386719 81.160156 L 45.386719 80.671875 L 40.855469 80.671875 C 41.015625 80.671875 41.015625 80.835938 41.015625 80.996094 C 41.015625 80.996094 41.015625 81.160156 40.855469 81.160156 L 42.796875 81.160156 L 42.796875 87.632812 L 43.605469 87.632812 Z M 49.433594 86.175781 C 49.433594 86.5 49.433594 86.824219 49.273438 87.148438 C 49.59375 87.46875 50.242188 87.796875 50.726562 87.796875 C 51.863281 87.796875 52.832031 86.824219 52.832031 85.367188 C 52.832031 83.261719 50.082031 83.910156 50.082031 82.128906 C 50.082031 81.320312 50.566406 80.835938 51.214844 80.835938 C 51.699219 80.835938 52.183594 81.320312 52.347656 81.804688 C 52.507812 81.480469 52.507812 81.15625 52.671875 80.996094 C 52.347656 80.671875 51.863281 80.511719 51.375 80.511719 C 50.40625 80.511719 49.433594 81.15625 49.433594 82.453125 C 49.433594 84.71875 52.1875 83.910156 52.1875 85.851562 C 52.1875 86.660156 51.699219 87.308594 51.050781 87.308594 C 50.242188 87.308594 49.917969 86.824219 49.597656 86.175781 Z M 55.261719 81.160156 L 57.527344 81.160156 L 57.527344 80.671875 L 54.453125 80.671875 L 54.453125 87.632812 L 57.6875 87.632812 C 57.527344 87.472656 57.527344 87.308594 57.527344 87.308594 C 57.527344 87.148438 57.527344 87.148438 57.6875 86.984375 L 56.878906 86.984375 C 56.230469 87.148438 55.746094 87.148438 55.261719 87.148438 L 55.261719 84.070312 L 56.554688 84.070312 C 56.878906 84.070312 57.042969 84.070312 57.367188 84.234375 L 57.367188 83.585938 L 55.261719 83.585938 Z M 60.117188 80.996094 L 61.410156 80.996094 C 62.058594 81.160156 62.21875 81.644531 62.21875 82.292969 C 62.21875 83.101562 61.898438 83.585938 61.25 83.75 C 60.765625 83.910156 60.277344 83.75 60.117188 83.75 Z M 59.308594 87.632812 L 60.117188 87.632812 L 60.117188 84.234375 L 60.441406 84.234375 L 61.085938 85.207031 L 62.058594 86.664062 C 62.21875 86.984375 62.382812 87.308594 62.707031 87.632812 L 63.679688 87.632812 L 63.515625 87.308594 L 63.03125 86.824219 L 61.25 84.070312 C 62.21875 83.910156 63.03125 83.425781 63.03125 82.128906 C 63.03125 81.15625 62.542969 80.671875 61.089844 80.671875 L 59.308594 80.671875 Z M 67.5625 85.207031 C 67.398438 85.691406 67.238281 86.015625 67.078125 86.5 L 66.914062 86.5 L 65.941406 83.425781 L 65.296875 81.644531 C 65.132812 81.320312 65.132812 80.996094 64.972656 80.671875 L 64.164062 80.671875 C 64.488281 81.480469 65.78125 85.203125 66.753906 87.632812 L 67.074219 87.632812 C 67.398438 86.5 69.339844 81.320312 69.503906 80.671875 L 69.019531 80.671875 L 68.855469 80.835938 L 68.371094 82.453125 Z M 70.960938 87.632812 L 71.769531 87.632812 L 71.769531 80.671875 L 70.960938 80.671875 Z M 78.40625 86.5 C 78.246094 86.660156 77.4375 87.308594 76.625 87.308594 C 75.167969 87.308594 74.199219 86.015625 74.199219 84.074219 C 74.199219 82.453125 75.007812 80.835938 76.625 80.835938 C 77.4375 80.835938 78.082031 81.484375 78.246094 81.804688 L 78.246094 81.644531 C 78.40625 81.484375 78.40625 81.15625 78.566406 80.996094 C 77.921875 80.671875 77.273438 80.511719 76.625 80.511719 C 74.84375 80.511719 73.390625 81.804688 73.390625 84.070312 C 73.390625 86.335938 74.523438 87.796875 76.464844 87.796875 C 77.113281 87.796875 77.761719 87.632812 78.40625 87.148438 Z M 80.835938 81.160156 L 83.101562 81.160156 L 83.101562 80.671875 L 80.027344 80.671875 L 80.027344 87.632812 L 83.261719 87.632812 C 83.101562 87.472656 83.101562 87.308594 83.101562 87.308594 C 83.101562 87.148438 83.101562 87.148438 83.261719 86.984375 L 82.453125 86.984375 C 81.804688 87.148438 81.320312 87.148438 80.835938 87.148438 L 80.835938 84.070312 L 82.128906 84.070312 C 82.453125 84.070312 82.617188 84.070312 82.941406 84.234375 L 82.941406 83.585938 L 80.835938 83.585938 Z M 80.835938 81.160156 "/>
</g>
</svg>
